<svg xmlns="http://www.w3.org/2000/svg" width="13.4" height="23.4" viewBox="0 0 13.4 23.4">
  <g id="icon_nfc" transform="translate(13.4) rotate(90)">
    <path id="Combined_Shape" data-name="Combined Shape" d="M11.7,11a4.529,4.529,0,0,0-3.95,2.4L6.3,11.9a6.478,6.478,0,0,1,10.8,0l-1.45,1.5A4.435,4.435,0,0,0,11.7,11Zm0-4.5A8.949,8.949,0,0,0,4.55,10.05L3.15,8.6a10.964,10.964,0,0,1,17.1,0l-1.4,1.45A8.949,8.949,0,0,0,11.7,6.5Zm0-4.5A13.32,13.32,0,0,0,1.4,6.8L0,5.35a15.469,15.469,0,0,1,23.4,0L22,6.8A13.32,13.32,0,0,0,11.7,2Z" fill="#262626"/>
  </g>
</svg>
